<?xml version="1.0" encoding="UTF-8" standalone="no"?><svg xmlns="http://www.w3.org/2000/svg" xmlns:xlink="http://www.w3.org/1999/xlink" clip-rule="evenodd" stroke-miterlimit="10" viewBox="0 0 1024 768"><desc>SVG generated by Keynote</desc><defs></defs><g transform="matrix(1.00, 0.00, -0.00, -1.00, 0.0, 768.0)"><path d="M 0.0 768.0 L 1024.0 768.0 L 1024.0 0.0 L 0.0 0.0 Z M 0.0 768.0 " fill="#FEFFFE"></path><image xlink:href="D8D60F5EB8D9DB61B100BE060B02204D.jpeg" width="1500.00" height="1500.00" transform="matrix(0.51, 0.00, -0.00, -0.51, -1.1, 768.1)"></image><image xlink:href="51A7A96D792EFCEA16AF4ACBDA3D78EB.png" width="84.00" height="90.00" transform="matrix(0.11, 0.00, -0.00, -0.11, 555.5, 674.9)"></image><text xml:space="preserve" font-family="GillSans-Light,Gill Sans" font-size="29.0" fill="#525252" transform="matrix(1.00, 0.00, -0.00, -1.00, 587.6, 663.4)">N</text><text xml:space="preserve" font-family="GillSans-Light,Gill Sans" font-size="29.0" fill="#525252" transform="matrix(1.00, 0.00, -0.00, -1.00, 610.0, 663.4)">o</text><text xml:space="preserve" font-family="GillSans-Light,Gill Sans" font-size="29.0" fill="#525252" transform="matrix(1.00, 0.00, -0.00, -1.00, 625.7, 663.4)"> </text><text xml:space="preserve" font-family="GillSans-Light,Gill Sans" font-size="29.0" fill="#525252" transform="matrix(1.00, 0.00, -0.00, -1.00, 633.8, 663.4)">m</text><text xml:space="preserve" font-family="GillSans-Light,Gill Sans" font-size="29.0" fill="#525252" transform="matrix(1.00, 0.00, -0.00, -1.00, 656.1, 663.4)">o</text><text xml:space="preserve" font-family="GillSans-Light,Gill Sans" font-size="29.0" fill="#525252" transform="matrix(1.00, 0.00, -0.00, -1.00, 671.8, 663.4)">r</text><text xml:space="preserve" font-family="GillSans-Light,Gill Sans" font-size="29.0" fill="#525252" transform="matrix(1.00, 0.00, -0.00, -1.00, 681.5, 663.4)">e</text><text xml:space="preserve" font-family="GillSans-Light,Gill Sans" font-size="29.0" fill="#525252" transform="matrix(1.00, 0.00, -0.00, -1.00, 695.4, 663.4)"> </text><text xml:space="preserve" font-family="GillSans-Light,Gill Sans" font-size="29.0" fill="#525252" transform="matrix(1.00, 0.00, -0.00, -1.00, 703.4, 663.4)">c</text><text xml:space="preserve" font-family="GillSans-Light,Gill Sans" font-size="29.0" fill="#525252" transform="matrix(1.00, 0.00, -0.00, -1.00, 715.5, 663.4)">o</text><text xml:space="preserve" font-family="GillSans-Light,Gill Sans" font-size="29.0" fill="#525252" transform="matrix(1.00, 0.00, -0.00, -1.00, 731.2, 663.4)">n</text><text xml:space="preserve" font-family="GillSans-Light,Gill Sans" font-size="29.0" fill="#525252" transform="matrix(1.00, 0.00, -0.00, -1.00, 745.5, 663.4)">f</text><text xml:space="preserve" font-family="GillSans-Light,Gill Sans" font-size="29.0" fill="#525252" transform="matrix(1.00, 0.00, -0.00, -1.00, 752.4, 663.4)">u</text><text xml:space="preserve" font-family="GillSans-Light,Gill Sans" font-size="29.0" fill="#525252" transform="matrix(1.00, 0.00, -0.00, -1.00, 766.7, 663.4)">s</text><text xml:space="preserve" font-family="GillSans-Light,Gill Sans" font-size="29.0" fill="#525252" transform="matrix(1.00, 0.00, -0.00, -1.00, 776.9, 663.4)">i</text><text xml:space="preserve" font-family="GillSans-Light,Gill Sans" font-size="29.0" fill="#525252" transform="matrix(1.00, 0.00, -0.00, -1.00, 782.4, 663.4)">n</text><text xml:space="preserve" font-family="GillSans-Light,Gill Sans" font-size="29.0" fill="#525252" transform="matrix(1.00, 0.00, -0.00, -1.00, 796.6, 663.4)">g</text><text xml:space="preserve" font-family="GillSans-Light,Gill Sans" font-size="29.0" fill="#525252" transform="matrix(1.00, 0.00, -0.00, -1.00, 809.0, 663.4)"> </text><text xml:space="preserve" font-family="GillSans-Light,Gill Sans" font-size="29.0" fill="#525252" transform="matrix(1.00, 0.00, -0.00, -1.00, 817.0, 663.4)">m</text><text xml:space="preserve" font-family="GillSans-Light,Gill Sans" font-size="29.0" fill="#525252" transform="matrix(1.00, 0.00, -0.00, -1.00, 839.4, 663.4)">a</text><text xml:space="preserve" font-family="GillSans-Light,Gill Sans" font-size="29.0" fill="#525252" transform="matrix(1.00, 0.00, -0.00, -1.00, 851.8, 663.4)">p</text><text xml:space="preserve" font-family="GillSans-Light,Gill Sans" font-size="29.0" fill="#525252" transform="matrix(1.00, 0.00, -0.00, -1.00, 866.5, 663.4)">s</text><text xml:space="preserve" font-family="GillSans-Light,Gill Sans" font-size="29.0" fill="#525252" transform="matrix(1.00, 0.00, -0.00, -1.00, 876.8, 663.4)">	</text><text xml:space="preserve" font-family="GillSans-Light,Gill Sans" font-size="29.0" fill="#525252" transform="matrix(1.00, 0.00, -0.00, -1.00, 904.8, 663.4)">
</text><text xml:space="preserve" font-family="GillSans-Light,Gill Sans" font-size="29.0" fill="#525252" transform="matrix(1.00, 0.00, -0.00, -1.00, 904.8, 663.4)"></text><image xlink:href="../../920DEB2C-6D76-48E5-A38C-553D0E98C169/assets/51A7A96D792EFCEA16AF4ACBDA3D78EB.png" width="84.00" height="90.00" transform="matrix(0.11, 0.00, -0.00, -0.11, 555.5, 641.9)"></image><text xml:space="preserve" font-family="GillSans-Light,Gill Sans" font-size="29.0" fill="#525252" transform="matrix(1.00, 0.00, -0.00, -1.00, 587.6, 630.4)">N</text><text xml:space="preserve" font-family="GillSans-Light,Gill Sans" font-size="29.0" fill="#525252" transform="matrix(1.00, 0.00, -0.00, -1.00, 610.0, 630.4)">o</text><text xml:space="preserve" font-family="GillSans-Light,Gill Sans" font-size="29.0" fill="#525252" transform="matrix(1.00, 0.00, -0.00, -1.00, 625.7, 630.4)"> </text><text xml:space="preserve" font-family="GillSans-Light,Gill Sans" font-size="29.0" fill="#525252" transform="matrix(1.00, 0.00, -0.00, -1.00, 633.8, 630.4)">m</text><text xml:space="preserve" font-family="GillSans-Light,Gill Sans" font-size="29.0" fill="#525252" transform="matrix(1.00, 0.00, -0.00, -1.00, 656.1, 630.4)">o</text><text xml:space="preserve" font-family="GillSans-Light,Gill Sans" font-size="29.0" fill="#525252" transform="matrix(1.00, 0.00, -0.00, -1.00, 671.8, 630.4)">r</text><text xml:space="preserve" font-family="GillSans-Light,Gill Sans" font-size="29.0" fill="#525252" transform="matrix(1.00, 0.00, -0.00, -1.00, 681.5, 630.4)">e</text><text xml:space="preserve" font-family="GillSans-Light,Gill Sans" font-size="29.0" fill="#525252" transform="matrix(1.00, 0.00, -0.00, -1.00, 695.4, 630.4)"> </text><text xml:space="preserve" font-family="GillSans-Light,Gill Sans" font-size="29.0" fill="#525252" transform="matrix(1.00, 0.00, -0.00, -1.00, 703.4, 630.4)">h</text><text xml:space="preserve" font-family="GillSans-Light,Gill Sans" font-size="29.0" fill="#525252" transform="matrix(1.00, 0.00, -0.00, -1.00, 717.7, 630.4)">a</text><text xml:space="preserve" font-family="GillSans-Light,Gill Sans" font-size="29.0" fill="#525252" transform="matrix(1.00, 0.00, -0.00, -1.00, 730.0, 630.4)">u</text><text xml:space="preserve" font-family="GillSans-Light,Gill Sans" font-size="29.0" fill="#525252" transform="matrix(1.00, 0.00, -0.00, -1.00, 744.2, 630.4)">l</text><text xml:space="preserve" font-family="GillSans-Light,Gill Sans" font-size="29.0" fill="#525252" transform="matrix(1.00, 0.00, -0.00, -1.00, 749.7, 630.4)"> </text><text xml:space="preserve" font-family="GillSans-Light,Gill Sans" font-size="29.0" fill="#525252" transform="matrix(1.00, 0.00, -0.00, -1.00, 757.8, 630.4)">o</text><text xml:space="preserve" font-family="GillSans-Light,Gill Sans" font-size="29.0" fill="#525252" transform="matrix(1.00, 0.00, -0.00, -1.00, 773.5, 630.4)">f</text><text xml:space="preserve" font-family="GillSans-Light,Gill Sans" font-size="29.0" fill="#525252" transform="matrix(1.00, 0.00, -0.00, -1.00, 780.4, 630.4)"> </text><text xml:space="preserve" font-family="GillSans-Light,Gill Sans" font-size="29.0" fill="#525252" transform="matrix(1.00, 0.00, -0.00, -1.00, 788.5, 630.4)">i</text><text xml:space="preserve" font-family="GillSans-Light,Gill Sans" font-size="29.0" fill="#525252" transform="matrix(1.00, 0.00, -0.00, -1.00, 793.9, 630.4)">n</text><text xml:space="preserve" font-family="GillSans-Light,Gill Sans" font-size="29.0" fill="#525252" transform="matrix(1.00, 0.00, -0.00, -1.00, 808.2, 630.4)">f</text><text xml:space="preserve" font-family="GillSans-Light,Gill Sans" font-size="29.0" fill="#525252" transform="matrix(1.00, 0.00, -0.00, -1.00, 814.9, 630.4)">o</text><text xml:space="preserve" font-family="GillSans-Light,Gill Sans" font-size="29.0" fill="#525252" transform="matrix(1.00, 0.00, -0.00, -1.00, 830.6, 630.4)">r</text><text xml:space="preserve" font-family="GillSans-Light,Gill Sans" font-size="29.0" fill="#525252" transform="matrix(1.00, 0.00, -0.00, -1.00, 841.0, 630.4)">m</text><text xml:space="preserve" font-family="GillSans-Light,Gill Sans" font-size="29.0" fill="#525252" transform="matrix(1.00, 0.00, -0.00, -1.00, 863.3, 630.4)">a</text><text xml:space="preserve" font-family="GillSans-Light,Gill Sans" font-size="29.0" fill="#525252" transform="matrix(1.00, 0.00, -0.00, -1.00, 875.7, 630.4)">t</text><text xml:space="preserve" font-family="GillSans-Light,Gill Sans" font-size="29.0" fill="#525252" transform="matrix(1.00, 0.00, -0.00, -1.00, 884.4, 630.4)">i</text><text xml:space="preserve" font-family="GillSans-Light,Gill Sans" font-size="29.0" fill="#525252" transform="matrix(1.00, 0.00, -0.00, -1.00, 889.9, 630.4)">o</text><text xml:space="preserve" font-family="GillSans-Light,Gill Sans" font-size="29.0" fill="#525252" transform="matrix(1.00, 0.00, -0.00, -1.00, 905.6, 630.4)">n</text><text xml:space="preserve" font-family="GillSans-Light,Gill Sans" font-size="29.0" fill="#525252" transform="matrix(1.00, 0.00, -0.00, -1.00, 919.8, 630.4)">	</text><text xml:space="preserve" font-family="GillSans-Light,Gill Sans" font-size="29.0" fill="#525252" transform="matrix(1.00, 0.00, -0.00, -1.00, 947.8, 630.4)">
</text><text xml:space="preserve" font-family="GillSans-Light,Gill Sans" font-size="29.0" fill="#525252" transform="matrix(1.00, 0.00, -0.00, -1.00, 947.8, 630.4)"></text><image xlink:href="../../920DEB2C-6D76-48E5-A38C-553D0E98C169/assets/51A7A96D792EFCEA16AF4ACBDA3D78EB.png" width="84.00" height="90.00" transform="matrix(0.11, 0.00, -0.00, -0.11, 555.5, 608.9)"></image><text xml:space="preserve" font-family="GillSans-Light,Gill Sans" font-size="29.0" fill="#525252" transform="matrix(1.00, 0.00, -0.00, -1.00, 587.6, 597.4)">N</text><text xml:space="preserve" font-family="GillSans-Light,Gill Sans" font-size="29.0" fill="#525252" transform="matrix(1.00, 0.00, -0.00, -1.00, 610.0, 597.4)">o</text><text xml:space="preserve" font-family="GillSans-Light,Gill Sans" font-size="29.0" fill="#525252" transform="matrix(1.00, 0.00, -0.00, -1.00, 625.7, 597.4)"> </text><text xml:space="preserve" font-family="GillSans-Light,Gill Sans" font-size="29.0" fill="#525252" transform="matrix(1.00, 0.00, -0.00, -1.00, 633.8, 597.4)">m</text><text xml:space="preserve" font-family="GillSans-Light,Gill Sans" font-size="29.0" fill="#525252" transform="matrix(1.00, 0.00, -0.00, -1.00, 656.1, 597.4)">o</text><text xml:space="preserve" font-family="GillSans-Light,Gill Sans" font-size="29.0" fill="#525252" transform="matrix(1.00, 0.00, -0.00, -1.00, 671.8, 597.4)">r</text><text xml:space="preserve" font-family="GillSans-Light,Gill Sans" font-size="29.0" fill="#525252" transform="matrix(1.00, 0.00, -0.00, -1.00, 681.5, 597.4)">e</text><text xml:space="preserve" font-family="GillSans-Light,Gill Sans" font-size="29.0" fill="#525252" transform="matrix(1.00, 0.00, -0.00, -1.00, 695.4, 597.4)"> </text><text xml:space="preserve" font-family="GillSans-Light,Gill Sans" font-size="29.0" fill="#525252" transform="matrix(1.00, 0.00, -0.00, -1.00, 703.4, 597.4)">u</text><text xml:space="preserve" font-family="GillSans-Light,Gill Sans" font-size="29.0" fill="#525252" transform="matrix(1.00, 0.00, -0.00, -1.00, 717.7, 597.4)">n</text><text xml:space="preserve" font-family="GillSans-Light,Gill Sans" font-size="29.0" fill="#525252" transform="matrix(1.00, 0.00, -0.00, -1.00, 731.9, 597.4)">s</text><text xml:space="preserve" font-family="GillSans-Light,Gill Sans" font-size="29.0" fill="#525252" transform="matrix(1.00, 0.00, -0.00, -1.00, 742.1, 597.4)">a</text><text xml:space="preserve" font-family="GillSans-Light,Gill Sans" font-size="29.0" fill="#525252" transform="matrix(1.00, 0.00, -0.00, -1.00, 754.5, 597.4)">t</text><text xml:space="preserve" font-family="GillSans-Light,Gill Sans" font-size="29.0" fill="#525252" transform="matrix(1.00, 0.00, -0.00, -1.00, 763.3, 597.4)">i</text><text xml:space="preserve" font-family="GillSans-Light,Gill Sans" font-size="29.0" fill="#525252" transform="matrix(1.00, 0.00, -0.00, -1.00, 768.7, 597.4)">s</text><text xml:space="preserve" font-family="GillSans-Light,Gill Sans" font-size="29.0" fill="#525252" transform="matrix(1.00, 0.00, -0.00, -1.00, 779.0, 597.4)">ï¬</text><text xml:space="preserve" font-family="GillSans-Light,Gill Sans" font-size="29.0" fill="#525252" transform="matrix(1.00, 0.00, -0.00, -1.00, 792.9, 597.4)">e</text><text xml:space="preserve" font-family="GillSans-Light,Gill Sans" font-size="29.0" fill="#525252" transform="matrix(1.00, 0.00, -0.00, -1.00, 806.8, 597.4)">d</text><text xml:space="preserve" font-family="GillSans-Light,Gill Sans" font-size="29.0" fill="#525252" transform="matrix(1.00, 0.00, -0.00, -1.00, 821.5, 597.4)"> </text><text xml:space="preserve" font-family="GillSans-Light,Gill Sans" font-size="29.0" fill="#525252" transform="matrix(1.00, 0.00, -0.00, -1.00, 829.6, 597.4)">t</text><text xml:space="preserve" font-family="GillSans-Light,Gill Sans" font-size="29.0" fill="#525252" transform="matrix(1.00, 0.00, -0.00, -1.00, 838.3, 597.4)">o</text><text xml:space="preserve" font-family="GillSans-Light,Gill Sans" font-size="29.0" fill="#525252" transform="matrix(1.00, 0.00, -0.00, -1.00, 854.1, 597.4)">u</text><text xml:space="preserve" font-family="GillSans-Light,Gill Sans" font-size="29.0" fill="#525252" transform="matrix(1.00, 0.00, -0.00, -1.00, 868.3, 597.4)">r</text><text xml:space="preserve" font-family="GillSans-Light,Gill Sans" font-size="29.0" fill="#525252" transform="matrix(1.00, 0.00, -0.00, -1.00, 878.7, 597.4)">i</text><text xml:space="preserve" font-family="GillSans-Light,Gill Sans" font-size="29.0" fill="#525252" transform="matrix(1.00, 0.00, -0.00, -1.00, 884.1, 597.4)">s</text><text xml:space="preserve" font-family="GillSans-Light,Gill Sans" font-size="29.0" fill="#525252" transform="matrix(1.00, 0.00, -0.00, -1.00, 894.4, 597.4)">t</text><text xml:space="preserve" font-family="GillSans-Light,Gill Sans" font-size="29.0" fill="#525252" transform="matrix(1.00, 0.00, -0.00, -1.00, 903.1, 597.4)">s</text><text xml:space="preserve" font-family="GillSans-Light,Gill Sans" font-size="29.0" fill="#525252" transform="matrix(1.00, 0.00, -0.00, -1.00, 913.4, 597.4)">	</text><text xml:space="preserve" font-family="GillSans-Light,Gill Sans" font-size="29.0" fill="#525252" transform="matrix(1.00, 0.00, -0.00, -1.00, 941.4, 597.4)">
</text><text xml:space="preserve" font-family="GillSans-Light,Gill Sans" font-size="29.0" fill="#525252" transform="matrix(1.00, 0.00, -0.00, -1.00, 941.4, 597.4)"></text><image xlink:href="../../920DEB2C-6D76-48E5-A38C-553D0E98C169/assets/51A7A96D792EFCEA16AF4ACBDA3D78EB.png" width="84.00" height="90.00" transform="matrix(0.11, 0.00, -0.00, -0.11, 555.5, 575.9)"></image><text xml:space="preserve" font-family="GillSans-Light,Gill Sans" font-size="29.0" fill="#525252" transform="matrix(1.00, 0.00, -0.00, -1.00, 587.6, 564.4)">N</text><text xml:space="preserve" font-family="GillSans-Light,Gill Sans" font-size="29.0" fill="#525252" transform="matrix(1.00, 0.00, -0.00, -1.00, 610.0, 564.4)">o</text><text xml:space="preserve" font-family="GillSans-Light,Gill Sans" font-size="29.0" fill="#525252" transform="matrix(1.00, 0.00, -0.00, -1.00, 625.7, 564.4)"> </text><text xml:space="preserve" font-family="GillSans-Light,Gill Sans" font-size="29.0" fill="#525252" transform="matrix(1.00, 0.00, -0.00, -1.00, 633.8, 564.4)">m</text><text xml:space="preserve" font-family="GillSans-Light,Gill Sans" font-size="29.0" fill="#525252" transform="matrix(1.00, 0.00, -0.00, -1.00, 656.1, 564.4)">o</text><text xml:space="preserve" font-family="GillSans-Light,Gill Sans" font-size="29.0" fill="#525252" transform="matrix(1.00, 0.00, -0.00, -1.00, 671.8, 564.4)">r</text><text xml:space="preserve" font-family="GillSans-Light,Gill Sans" font-size="29.0" fill="#525252" transform="matrix(1.00, 0.00, -0.00, -1.00, 681.5, 564.4)">e</text><text xml:space="preserve" font-family="GillSans-Light,Gill Sans" font-size="29.0" fill="#525252" transform="matrix(1.00, 0.00, -0.00, -1.00, 695.4, 564.4)"> </text><text xml:space="preserve" font-family="GillSans-Light,Gill Sans" font-size="29.0" fill="#525252" transform="matrix(1.00, 0.00, -0.00, -1.00, 703.4, 564.4)">t</text><text xml:space="preserve" font-family="GillSans-Light,Gill Sans" font-size="29.0" fill="#525252" transform="matrix(1.00, 0.00, -0.00, -1.00, 712.2, 564.4)">i</text><text xml:space="preserve" font-family="GillSans-Light,Gill Sans" font-size="29.0" fill="#525252" transform="matrix(1.00, 0.00, -0.00, -1.00, 717.6, 564.4)">e</text><text xml:space="preserve" font-family="GillSans-Light,Gill Sans" font-size="29.0" fill="#525252" transform="matrix(1.00, 0.00, -0.00, -1.00, 731.5, 564.4)">d</text><text xml:space="preserve" font-family="GillSans-Light,Gill Sans" font-size="29.0" fill="#525252" transform="matrix(1.00, 0.00, -0.00, -1.00, 746.3, 564.4)"> </text><text xml:space="preserve" font-family="GillSans-Light,Gill Sans" font-size="29.0" fill="#525252" transform="matrix(1.00, 0.00, -0.00, -1.00, 754.4, 564.4)">u</text><text xml:space="preserve" font-family="GillSans-Light,Gill Sans" font-size="29.0" fill="#525252" transform="matrix(1.00, 0.00, -0.00, -1.00, 768.6, 564.4)">p</text><text xml:space="preserve" font-family="GillSans-Light,Gill Sans" font-size="29.0" fill="#525252" transform="matrix(1.00, 0.00, -0.00, -1.00, 783.4, 564.4)"> </text><text xml:space="preserve" font-family="GillSans-Light,Gill Sans" font-size="29.0" fill="#525252" transform="matrix(1.00, 0.00, -0.00, -1.00, 791.4, 564.4)">s</text><text xml:space="preserve" font-family="GillSans-Light,Gill Sans" font-size="29.0" fill="#525252" transform="matrix(1.00, 0.00, -0.00, -1.00, 801.7, 564.4)">c</text><text xml:space="preserve" font-family="GillSans-Light,Gill Sans" font-size="29.0" fill="#525252" transform="matrix(1.00, 0.00, -0.00, -1.00, 813.8, 564.4)">h</text><text xml:space="preserve" font-family="GillSans-Light,Gill Sans" font-size="29.0" fill="#525252" transform="matrix(1.00, 0.00, -0.00, -1.00, 828.0, 564.4)">e</text><text xml:space="preserve" font-family="GillSans-Light,Gill Sans" font-size="29.0" fill="#525252" transform="matrix(1.00, 0.00, -0.00, -1.00, 841.9, 564.4)">d</text><text xml:space="preserve" font-family="GillSans-Light,Gill Sans" font-size="29.0" fill="#525252" transform="matrix(1.00, 0.00, -0.00, -1.00, 856.7, 564.4)">u</text><text xml:space="preserve" font-family="GillSans-Light,Gill Sans" font-size="29.0" fill="#525252" transform="matrix(1.00, 0.00, -0.00, -1.00, 870.9, 564.4)">l</text><text xml:space="preserve" font-family="GillSans-Light,Gill Sans" font-size="29.0" fill="#525252" transform="matrix(1.00, 0.00, -0.00, -1.00, 876.3, 564.4)">e</text><text xml:space="preserve" font-family="GillSans-Light,Gill Sans" font-size="29.0" fill="#525252" transform="matrix(1.00, 0.00, -0.00, -1.00, 890.2, 564.4)">s</text><text xml:space="preserve" font-family="GillSans-Light,Gill Sans" font-size="29.0" fill="#525252" transform="matrix(1.00, 0.00, -0.00, -1.00, 900.5, 564.4)">	</text><text xml:space="preserve" font-family="GillSans-Light,Gill Sans" font-size="29.0" fill="#525252" transform="matrix(1.00, 0.00, -0.00, -1.00, 928.5, 564.4)">
</text><text xml:space="preserve" font-family="GillSans-Light,Gill Sans" font-size="29.0" fill="#525252" transform="matrix(1.00, 0.00, -0.00, -1.00, 928.5, 564.4)"></text><image xlink:href="../../920DEB2C-6D76-48E5-A38C-553D0E98C169/assets/51A7A96D792EFCEA16AF4ACBDA3D78EB.png" width="84.00" height="90.00" transform="matrix(0.11, 0.00, -0.00, -0.11, 555.5, 542.9)"></image><text xml:space="preserve" font-family="GillSans-Light,Gill Sans" font-size="29.0" fill="#525252" transform="matrix(1.00, 0.00, -0.00, -1.00, 587.6, 531.4)">A</text><text xml:space="preserve" font-family="GillSans-Light,Gill Sans" font-size="29.0" fill="#525252" transform="matrix(1.00, 0.00, -0.00, -1.00, 607.0, 531.4)">n</text><text xml:space="preserve" font-family="GillSans-Light,Gill Sans" font-size="29.0" fill="#525252" transform="matrix(1.00, 0.00, -0.00, -1.00, 621.2, 531.4)">d</text><text xml:space="preserve" font-family="GillSans-Light,Gill Sans" font-size="29.0" fill="#525252" transform="matrix(1.00, 0.00, -0.00, -1.00, 636.0, 531.4)"> </text><text xml:space="preserve" font-family="GillSans-Light,Gill Sans" font-size="29.0" fill="#525252" transform="matrix(1.00, 0.00, -0.00, -1.00, 644.0, 531.4)">r</text><text xml:space="preserve" font-family="GillSans-Light,Gill Sans" font-size="29.0" fill="#525252" transform="matrix(1.00, 0.00, -0.00, -1.00, 653.7, 531.4)">e</text><text xml:space="preserve" font-family="GillSans-Light,Gill Sans" font-size="29.0" fill="#525252" transform="matrix(1.00, 0.00, -0.00, -1.00, 667.6, 531.4)">v</text><text xml:space="preserve" font-family="GillSans-Light,Gill Sans" font-size="29.0" fill="#525252" transform="matrix(1.00, 0.00, -0.00, -1.00, 679.5, 531.4)">e</text><text xml:space="preserve" font-family="GillSans-Light,Gill Sans" font-size="29.0" fill="#525252" transform="matrix(1.00, 0.00, -0.00, -1.00, 693.4, 531.4)">n</text><text xml:space="preserve" font-family="GillSans-Light,Gill Sans" font-size="29.0" fill="#525252" transform="matrix(1.00, 0.00, -0.00, -1.00, 707.3, 531.4)">u</text><text xml:space="preserve" font-family="GillSans-Light,Gill Sans" font-size="29.0" fill="#525252" transform="matrix(1.00, 0.00, -0.00, -1.00, 721.6, 531.4)">e</text><text xml:space="preserve" font-family="GillSans-Light,Gill Sans" font-size="29.0" fill="#525252" transform="matrix(1.00, 0.00, -0.00, -1.00, 735.4, 531.4)"> </text><text xml:space="preserve" font-family="GillSans-Light,Gill Sans" font-size="29.0" fill="#525252" transform="matrix(1.00, 0.00, -0.00, -1.00, 743.5, 531.4)">i</text><text xml:space="preserve" font-family="GillSans-Light,Gill Sans" font-size="29.0" fill="#525252" transform="matrix(1.00, 0.00, -0.00, -1.00, 749.0, 531.4)">n</text><text xml:space="preserve" font-family="GillSans-Light,Gill Sans" font-size="29.0" fill="#525252" transform="matrix(1.00, 0.00, -0.00, -1.00, 763.2, 531.4)">c</text><text xml:space="preserve" font-family="GillSans-Light,Gill Sans" font-size="29.0" fill="#525252" transform="matrix(1.00, 0.00, -0.00, -1.00, 775.3, 531.4)">r</text><text xml:space="preserve" font-family="GillSans-Light,Gill Sans" font-size="29.0" fill="#525252" transform="matrix(1.00, 0.00, -0.00, -1.00, 784.9, 531.4)">e</text><text xml:space="preserve" font-family="GillSans-Light,Gill Sans" font-size="29.0" fill="#525252" transform="matrix(1.00, 0.00, -0.00, -1.00, 798.8, 531.4)">a</text><text xml:space="preserve" font-family="GillSans-Light,Gill Sans" font-size="29.0" fill="#525252" transform="matrix(1.00, 0.00, -0.00, -1.00, 811.2, 531.4)">s</text><text xml:space="preserve" font-family="GillSans-Light,Gill Sans" font-size="29.0" fill="#525252" transform="matrix(1.00, 0.00, -0.00, -1.00, 821.5, 531.4)">e</text><text xml:space="preserve" font-family="GillSans-Light,Gill Sans" font-size="29.0" fill="#525252" transform="matrix(1.00, 0.00, -0.00, -1.00, 835.3, 531.4)"> </text><text xml:space="preserve" font-family="GillSans-Light,Gill Sans" font-size="29.0" fill="#525252" transform="matrix(1.00, 0.00, -0.00, -1.00, 843.4, 531.4)">i</text><text xml:space="preserve" font-family="GillSans-Light,Gill Sans" font-size="29.0" fill="#525252" transform="matrix(1.00, 0.00, -0.00, -1.00, 848.8, 531.4)">s</text><text xml:space="preserve" font-family="GillSans-Light,Gill Sans" font-size="29.0" fill="#525252" transform="matrix(1.00, 0.00, -0.00, -1.00, 859.1, 531.4)"> </text><text xml:space="preserve" font-family="GillSans-Light,Gill Sans" font-size="29.0" fill="#525252" transform="matrix(1.00, 0.00, -0.00, -1.00, 867.2, 531.4)">a</text><text xml:space="preserve" font-family="GillSans-Light,Gill Sans" font-size="29.0" fill="#525252" transform="matrix(1.00, 0.00, -0.00, -1.00, 879.5, 531.4)"> </text><text xml:space="preserve" font-family="GillSans-Light,Gill Sans" font-size="29.0" fill="#525252" transform="matrix(1.00, 0.00, -0.00, -1.00, 887.6, 531.4)">p</text><text xml:space="preserve" font-family="GillSans-Light,Gill Sans" font-size="29.0" fill="#525252" transform="matrix(1.00, 0.00, -0.00, -1.00, 902.4, 531.4)">l</text><text xml:space="preserve" font-family="GillSans-Light,Gill Sans" font-size="29.0" fill="#525252" transform="matrix(1.00, 0.00, -0.00, -1.00, 907.8, 531.4)">u</text><text xml:space="preserve" font-family="GillSans-Light,Gill Sans" font-size="29.0" fill="#525252" transform="matrix(1.00, 0.00, -0.00, -1.00, 922.0, 531.4)">s</text><text xml:space="preserve" font-family="GillSans-Light,Gill Sans" font-size="29.0" fill="#525252" transform="matrix(1.00, 0.00, -0.00, -1.00, 932.3, 531.4)">!</text></g></svg>