<?xml version="1.0" encoding="UTF-8" standalone="no"?><svg xmlns="http://www.w3.org/2000/svg" xmlns:xlink="http://www.w3.org/1999/xlink" clip-rule="evenodd" stroke-miterlimit="10" viewBox="0 0 1024 768"><desc>SVG generated by Keynote</desc><defs></defs><g transform="matrix(1.00, 0.00, -0.00, -1.00, 0.0, 768.0)"><g><clipPath id="clip0x6000020bdbe0"><path d="M 0.0 768.0 L 1024.0 768.0 L 1024.0 0.0 L 0.0 0.0 Z M 0.0 768.0 "></path></clipPath><g clip-path="url(#clip0x6000020bdbe0)"><image xlink:href="../../E942948C-BC6A-49D1-B3B9-4DAB4A4FD6CB/assets/527288347077A8BC66C9A53B775387A8.jpeg" width="2048.00" height="1536.00" transform="matrix(0.50, 0.00, -0.00, -0.50, 0.0, 768.0)"></image></g></g><g><clipPath id="clip0x6000020bdca0"><path d="M -66.0 768.0 L 1026.0 768.0 L 1026.0 0.0 L -66.0 0.0 Z M -65.7 768.1 "></path></clipPath><g clip-path="url(#clip0x6000020bdca0)"><image xlink:href="45F82FD7F4FC8C5B89041772EE78A1FE.jpeg" width="1920.00" height="1080.00" transform="matrix(0.71, 0.00, -0.00, -0.71, -202.8, 768.1)"></image></g></g><path d="M -8.0 721.0 L 584.0 721.0 L 584.0 553.0 L -8.0 553.0 Z M -8.0 721.0 " fill="#D99719"></path><g><clipPath id="clip0x6080022a9e40"><path d="M -23.9 537.1 L 599.9 537.1 L 599.9 736.9 L -23.9 736.9 Z M -23.9 537.1 "></path></clipPath><g clip-path="url(#clip0x6080022a9e40)"><text xml:space="preserve" font-family="GillSans-Light,Gill Sans" font-size="70.0" fill="#FEFFFF" transform="matrix(1.00, 0.00, -0.00, -1.00, 25.9, 653.7)">T</text><text xml:space="preserve" font-family="GillSans-Light,Gill Sans" font-size="70.0" fill="#FEFFFF" transform="matrix(1.00, 0.00, -0.00, -1.00, 66.0, 653.7)">h</text><text xml:space="preserve" font-family="GillSans-Light,Gill Sans" font-size="70.0" fill="#FEFFFF" transform="matrix(1.00, 0.00, -0.00, -1.00, 100.4, 653.7)">e</text><text xml:space="preserve" font-family="GillSans-Light,Gill Sans" font-size="70.0" fill="#FEFFFF" transform="matrix(1.00, 0.00, -0.00, -1.00, 133.9, 653.7)"> </text><text xml:space="preserve" font-family="GillSans-Light,Gill Sans" font-size="70.0" fill="#FEFFFF" transform="matrix(1.00, 0.00, -0.00, -1.00, 153.3, 653.7)">m</text><text xml:space="preserve" font-family="GillSans-Light,Gill Sans" font-size="70.0" fill="#FEFFFF" transform="matrix(1.00, 0.00, -0.00, -1.00, 207.3, 653.7)">o</text><text xml:space="preserve" font-family="GillSans-Light,Gill Sans" font-size="70.0" fill="#FEFFFF" transform="matrix(1.00, 0.00, -0.00, -1.00, 245.2, 653.7)">b</text><text xml:space="preserve" font-family="GillSans-Light,Gill Sans" font-size="70.0" fill="#FEFFFF" transform="matrix(1.00, 0.00, -0.00, -1.00, 280.9, 653.7)">i</text><text xml:space="preserve" font-family="GillSans-Light,Gill Sans" font-size="70.0" fill="#FEFFFF" transform="matrix(1.00, 0.00, -0.00, -1.00, 294.1, 653.7)">l</text><text xml:space="preserve" font-family="GillSans-Light,Gill Sans" font-size="70.0" fill="#FEFFFF" transform="matrix(1.00, 0.00, -0.00, -1.00, 307.2, 653.7)">e</text><text xml:space="preserve" font-family="GillSans-Light,Gill Sans" font-size="70.0" fill="#FEFFFF" transform="matrix(1.00, 0.00, -0.00, -1.00, 340.8, 653.7)"> </text><text xml:space="preserve" font-family="GillSans-Light,Gill Sans" font-size="70.0" fill="#FEFFFF" transform="matrix(1.00, 0.00, -0.00, -1.00, 360.2, 653.7)">a</text><text xml:space="preserve" font-family="GillSans-Light,Gill Sans" font-size="70.0" fill="#FEFFFF" transform="matrix(1.00, 0.00, -0.00, -1.00, 390.0, 653.7)">p</text><text xml:space="preserve" font-family="GillSans-Light,Gill Sans" font-size="70.0" fill="#FEFFFF" transform="matrix(1.00, 0.00, -0.00, -1.00, 425.7, 653.7)">p</text><text xml:space="preserve" font-family="GillSans-Light,Gill Sans" font-size="70.0" fill="#FEFFFF" transform="matrix(1.00, 0.00, -0.00, -1.00, 461.4, 653.7)"> </text><text xml:space="preserve" font-family="GillSans-Light,Gill Sans" font-size="70.0" fill="#FEFFFF" transform="matrix(1.00, 0.00, -0.00, -1.00, 480.8, 653.7)">b</text><text xml:space="preserve" font-family="GillSans-Light,Gill Sans" font-size="70.0" fill="#FEFFFF" transform="matrix(1.00, 0.00, -0.00, -1.00, 516.5, 653.7)">e</text><text xml:space="preserve" font-family="GillSans-Light,Gill Sans" font-size="70.0" fill="#FEFFFF" transform="matrix(1.00, 0.00, -0.00, -1.00, 550.0, 653.7)"> </text><text xml:space="preserve" font-family="GillSans-Light,Gill Sans" font-size="70.0" fill="#FEFFFF" transform="matrix(1.00, 0.00, -0.00, -1.00, 69.1, 573.7)">y</text><text xml:space="preserve" font-family="GillSans-Light,Gill Sans" font-size="70.0" fill="#FEFFFF" transform="matrix(1.00, 0.00, -0.00, -1.00, 96.8, 573.7)">o</text><text xml:space="preserve" font-family="GillSans-Light,Gill Sans" font-size="70.0" fill="#FEFFFF" transform="matrix(1.00, 0.00, -0.00, -1.00, 134.8, 573.7)">u</text><text xml:space="preserve" font-family="GillSans-Light,Gill Sans" font-size="70.0" fill="#FEFFFF" transform="matrix(1.00, 0.00, -0.00, -1.00, 169.1, 573.7)">r</text><text xml:space="preserve" font-family="GillSans-Light,Gill Sans" font-size="70.0" fill="#FEFFFF" transform="matrix(1.00, 0.00, -0.00, -1.00, 192.4, 573.7)"> </text><text xml:space="preserve" font-family="GillSans-Light,Gill Sans" font-size="70.0" fill="#FEFFFF" transform="matrix(1.00, 0.00, -0.00, -1.00, 211.9, 573.7)">t</text><text xml:space="preserve" font-family="GillSans-Light,Gill Sans" font-size="70.0" fill="#FEFFFF" transform="matrix(1.00, 0.00, -0.00, -1.00, 233.0, 573.7)">o</text><text xml:space="preserve" font-family="GillSans-Light,Gill Sans" font-size="70.0" fill="#FEFFFF" transform="matrix(1.00, 0.00, -0.00, -1.00, 270.9, 573.7)">u</text><text xml:space="preserve" font-family="GillSans-Light,Gill Sans" font-size="70.0" fill="#FEFFFF" transform="matrix(1.00, 0.00, -0.00, -1.00, 305.2, 573.7)">r</text><text xml:space="preserve" font-family="GillSans-Light,Gill Sans" font-size="70.0" fill="#FEFFFF" transform="matrix(1.00, 0.00, -0.00, -1.00, 328.5, 573.7)"> </text><text xml:space="preserve" font-family="GillSans-Light,Gill Sans" font-size="70.0" fill="#FEFFFF" transform="matrix(1.00, 0.00, -0.00, -1.00, 348.0, 573.7)">g</text><text xml:space="preserve" font-family="GillSans-Light,Gill Sans" font-size="70.0" fill="#FEFFFF" transform="matrix(1.00, 0.00, -0.00, -1.00, 377.8, 573.7)">u</text><text xml:space="preserve" font-family="GillSans-Light,Gill Sans" font-size="70.0" fill="#FEFFFF" transform="matrix(1.00, 0.00, -0.00, -1.00, 412.2, 573.7)">i</text><text xml:space="preserve" font-family="GillSans-Light,Gill Sans" font-size="70.0" fill="#FEFFFF" transform="matrix(1.00, 0.00, -0.00, -1.00, 425.3, 573.7)">d</text><text xml:space="preserve" font-family="GillSans-Light,Gill Sans" font-size="70.0" fill="#FEFFFF" transform="matrix(1.00, 0.00, -0.00, -1.00, 461.0, 573.7)">e</text><text xml:space="preserve" font-family="GillSans-Light,Gill Sans" font-size="70.0" fill="#FEFFFF" transform="matrix(1.00, 0.00, -0.00, -1.00, 494.5, 573.7)">!</text></g></g></g></svg>