<?xml version="1.0" encoding="UTF-8" standalone="no"?><svg xmlns="http://www.w3.org/2000/svg" xmlns:xlink="http://www.w3.org/1999/xlink" clip-rule="evenodd" stroke-miterlimit="10" viewBox="0 0 1024 768"><desc>SVG generated by Keynote</desc><defs></defs><g transform="matrix(1.00, 0.00, -0.00, -1.00, 0.0, 768.0)"><path d="M 0.0 768.0 L 1024.0 768.0 L 1024.0 0.0 L 0.0 0.0 Z M 0.0 768.0 " fill="#FEFFFE"></path><text xml:space="preserve" font-family="GillSans-Light,Gill Sans" font-size="72.0" fill="#525252" transform="matrix(1.00, 0.00, -0.00, -1.00, 578.5, 652.2)">E</text><text xml:space="preserve" font-family="GillSans-Light,Gill Sans" font-size="72.0" fill="#525252" transform="matrix(1.00, 0.00, -0.00, -1.00, 613.8, 652.2)">X</text><text xml:space="preserve" font-family="GillSans-Light,Gill Sans" font-size="72.0" fill="#525252" transform="matrix(1.00, 0.00, -0.00, -1.00, 663.3, 652.2)">A</text><text xml:space="preserve" font-family="GillSans-Light,Gill Sans" font-size="72.0" fill="#525252" transform="matrix(1.00, 0.00, -0.00, -1.00, 711.3, 652.2)">M</text><text xml:space="preserve" font-family="GillSans-Light,Gill Sans" font-size="72.0" fill="#525252" transform="matrix(1.00, 0.00, -0.00, -1.00, 767.5, 652.2)">P</text><text xml:space="preserve" font-family="GillSans-Light,Gill Sans" font-size="72.0" fill="#525252" transform="matrix(1.00, 0.00, -0.00, -1.00, 804.2, 652.2)">L</text><text xml:space="preserve" font-family="GillSans-Light,Gill Sans" font-size="72.0" fill="#525252" transform="matrix(1.00, 0.00, -0.00, -1.00, 838.0, 652.2)">E</text><text xml:space="preserve" font-family="GillSans-Light,Gill Sans" font-size="72.0" fill="#525252" transform="matrix(1.00, 0.00, -0.00, -1.00, 873.3, 652.2)">S</text><text xml:space="preserve" font-family="HoeflerText-Regular,Hoefler Text" font-size="38.0" fill="#525252" transform="matrix(1.00, 0.00, -0.00, -1.00, 558.2, 526.6)">“</text><text xml:space="preserve" font-family="HoeflerText-Regular,Hoefler Text" font-size="38.0" fill="#525252" transform="matrix(1.00, 0.00, -0.00, -1.00, 572.9, 526.6)"> </text><text xml:space="preserve" font-family="HoeflerText-Regular,Hoefler Text" font-size="38.0" fill="#525252" transform="matrix(1.00, 0.00, -0.00, -1.00, 582.4, 526.6)">H</text><text xml:space="preserve" font-family="HoeflerText-Regular,Hoefler Text" font-size="38.0" fill="#525252" transform="matrix(1.00, 0.00, -0.00, -1.00, 614.7, 526.6)">i</text><text xml:space="preserve" font-family="HoeflerText-Regular,Hoefler Text" font-size="38.0" fill="#525252" transform="matrix(1.00, 0.00, -0.00, -1.00, 625.4, 526.6)">,</text><text xml:space="preserve" font-family="HoeflerText-Regular,Hoefler Text" font-size="38.0" fill="#525252" transform="matrix(1.00, 0.00, -0.00, -1.00, 634.8, 526.6)"> </text><text xml:space="preserve" font-family="HoeflerText-Regular,Hoefler Text" font-size="38.0" fill="#525252" transform="matrix(1.00, 0.00, -0.00, -1.00, 644.3, 526.6)">I</text><text xml:space="preserve" font-family="HoeflerText-Regular,Hoefler Text" font-size="38.0" fill="#525252" transform="matrix(1.00, 0.00, -0.00, -1.00, 661.1, 526.6)">’</text><text xml:space="preserve" font-family="HoeflerText-Regular,Hoefler Text" font-size="38.0" fill="#525252" transform="matrix(1.00, 0.00, -0.00, -1.00, 668.9, 526.6)">m</text><text xml:space="preserve" font-family="HoeflerText-Regular,Hoefler Text" font-size="38.0" fill="#525252" transform="matrix(1.00, 0.00, -0.00, -1.00, 700.3, 526.6)"> </text><text xml:space="preserve" font-family="HoeflerText-Regular,Hoefler Text" font-size="38.0" fill="#525252" transform="matrix(1.00, 0.00, -0.00, -1.00, 709.8, 526.6)">M</text><text xml:space="preserve" font-family="HoeflerText-Regular,Hoefler Text" font-size="38.0" fill="#525252" transform="matrix(1.00, 0.00, -0.00, -1.00, 745.2, 526.6)">a</text><text xml:space="preserve" font-family="HoeflerText-Regular,Hoefler Text" font-size="38.0" fill="#525252" transform="matrix(1.00, 0.00, -0.00, -1.00, 762.1, 526.6)">r</text><text xml:space="preserve" font-family="HoeflerText-Regular,Hoefler Text" font-size="38.0" fill="#525252" transform="matrix(1.00, 0.00, -0.00, -1.00, 776.3, 526.6)">i</text><text xml:space="preserve" font-family="HoeflerText-Regular,Hoefler Text" font-size="38.0" fill="#525252" transform="matrix(1.00, 0.00, -0.00, -1.00, 786.9, 526.6)">a</text><text xml:space="preserve" font-family="HoeflerText-Regular,Hoefler Text" font-size="38.0" fill="#525252" transform="matrix(1.00, 0.00, -0.00, -1.00, 803.9, 526.6)">.</text><text xml:space="preserve" font-family="HoeflerText-Regular,Hoefler Text" font-size="38.0" fill="#525252" transform="matrix(1.00, 0.00, -0.00, -1.00, 813.2, 526.6)"> </text><text xml:space="preserve" font-family="HoeflerText-Regular,Hoefler Text" font-size="38.0" fill="#525252" transform="matrix(1.00, 0.00, -0.00, -1.00, 822.7, 526.6)">I</text><text xml:space="preserve" font-family="HoeflerText-Regular,Hoefler Text" font-size="38.0" fill="#525252" transform="matrix(1.00, 0.00, -0.00, -1.00, 839.5, 526.6)"> </text><text xml:space="preserve" font-family="HoeflerText-Regular,Hoefler Text" font-size="38.0" fill="#525252" transform="matrix(1.00, 0.00, -0.00, -1.00, 849.0, 526.6)">w</text><text xml:space="preserve" font-family="HoeflerText-Regular,Hoefler Text" font-size="38.0" fill="#525252" transform="matrix(1.00, 0.00, -0.00, -1.00, 875.6, 526.6)">a</text><text xml:space="preserve" font-family="HoeflerText-Regular,Hoefler Text" font-size="38.0" fill="#525252" transform="matrix(1.00, 0.00, -0.00, -1.00, 892.6, 526.6)">n</text><text xml:space="preserve" font-family="HoeflerText-Regular,Hoefler Text" font-size="38.0" fill="#525252" transform="matrix(1.00, 0.00, -0.00, -1.00, 913.4, 526.6)">t</text><text xml:space="preserve" font-family="HoeflerText-Regular,Hoefler Text" font-size="38.0" fill="#525252" transform="matrix(1.00, 0.00, -0.00, -1.00, 927.4, 526.6)"> </text><text xml:space="preserve" font-family="HoeflerText-Regular,Hoefler Text" font-size="38.0" fill="#525252" transform="matrix(1.00, 0.00, -0.00, -1.00, 581.5, 480.6)">t</text><text xml:space="preserve" font-family="HoeflerText-Regular,Hoefler Text" font-size="38.0" fill="#525252" transform="matrix(1.00, 0.00, -0.00, -1.00, 594.9, 480.6)">o</text><text xml:space="preserve" font-family="HoeflerText-Regular,Hoefler Text" font-size="38.0" fill="#525252" transform="matrix(1.00, 0.00, -0.00, -1.00, 615.3, 480.6)"> </text><text xml:space="preserve" font-family="HoeflerText-Regular,Hoefler Text" font-size="38.0" fill="#525252" transform="matrix(1.00, 0.00, -0.00, -1.00, 624.8, 480.6)">g</text><text xml:space="preserve" font-family="HoeflerText-Regular,Hoefler Text" font-size="38.0" fill="#525252" transform="matrix(1.00, 0.00, -0.00, -1.00, 642.7, 480.6)">o</text><text xml:space="preserve" font-family="HoeflerText-Regular,Hoefler Text" font-size="38.0" fill="#525252" transform="matrix(1.00, 0.00, -0.00, -1.00, 663.1, 480.6)"> </text><text xml:space="preserve" font-family="HoeflerText-Regular,Hoefler Text" font-size="38.0" fill="#525252" transform="matrix(1.00, 0.00, -0.00, -1.00, 672.6, 480.6)">f</text><text xml:space="preserve" font-family="HoeflerText-Regular,Hoefler Text" font-size="38.0" fill="#525252" transform="matrix(1.00, 0.00, -0.00, -1.00, 685.3, 480.6)">o</text><text xml:space="preserve" font-family="HoeflerText-Regular,Hoefler Text" font-size="38.0" fill="#525252" transform="matrix(1.00, 0.00, -0.00, -1.00, 705.7, 480.6)">r</text><text xml:space="preserve" font-family="HoeflerText-Regular,Hoefler Text" font-size="38.0" fill="#525252" transform="matrix(1.00, 0.00, -0.00, -1.00, 719.8, 480.6)"> </text><text xml:space="preserve" font-family="HoeflerText-Regular,Hoefler Text" font-size="38.0" fill="#525252" transform="matrix(1.00, 0.00, -0.00, -1.00, 729.3, 480.6)">a</text><text xml:space="preserve" font-family="HoeflerText-Regular,Hoefler Text" font-size="38.0" fill="#525252" transform="matrix(1.00, 0.00, -0.00, -1.00, 746.3, 480.6)"> </text><text xml:space="preserve" font-family="HoeflerText-Regular,Hoefler Text" font-size="38.0" fill="#525252" transform="matrix(1.00, 0.00, -0.00, -1.00, 755.8, 480.6)">t</text><text xml:space="preserve" font-family="HoeflerText-Regular,Hoefler Text" font-size="38.0" fill="#525252" transform="matrix(1.00, 0.00, -0.00, -1.00, 769.8, 480.6)">r</text><text xml:space="preserve" font-family="HoeflerText-Regular,Hoefler Text" font-size="38.0" fill="#525252" transform="matrix(1.00, 0.00, -0.00, -1.00, 783.9, 480.6)">i</text><text xml:space="preserve" font-family="HoeflerText-Regular,Hoefler Text" font-size="38.0" fill="#525252" transform="matrix(1.00, 0.00, -0.00, -1.00, 794.6, 480.6)">p</text><text xml:space="preserve" font-family="HoeflerText-Regular,Hoefler Text" font-size="38.0" fill="#525252" transform="matrix(1.00, 0.00, -0.00, -1.00, 815.4, 480.6)"> </text><text xml:space="preserve" font-family="HoeflerText-Regular,Hoefler Text" font-size="38.0" fill="#525252" transform="matrix(1.00, 0.00, -0.00, -1.00, 824.9, 480.6)">f</text><text xml:space="preserve" font-family="HoeflerText-Regular,Hoefler Text" font-size="38.0" fill="#525252" transform="matrix(1.00, 0.00, -0.00, -1.00, 838.2, 480.6)">r</text><text xml:space="preserve" font-family="HoeflerText-Regular,Hoefler Text" font-size="38.0" fill="#525252" transform="matrix(1.00, 0.00, -0.00, -1.00, 852.3, 480.6)">o</text><text xml:space="preserve" font-family="HoeflerText-Regular,Hoefler Text" font-size="38.0" fill="#525252" transform="matrix(1.00, 0.00, -0.00, -1.00, 872.7, 480.6)">m</text><text xml:space="preserve" font-family="HoeflerText-Regular,Hoefler Text" font-size="38.0" fill="#525252" transform="matrix(1.00, 0.00, -0.00, -1.00, 904.1, 480.6)"> </text><text xml:space="preserve" font-family="HoeflerText-Regular,Hoefler Text" font-size="38.0" fill="#525252" transform="matrix(1.00, 0.00, -0.00, -1.00, 542.2, 434.6)">S</text><text xml:space="preserve" font-family="HoeflerText-Regular,Hoefler Text" font-size="38.0" fill="#525252" transform="matrix(1.00, 0.00, -0.00, -1.00, 561.5, 434.6)">e</text><text xml:space="preserve" font-family="HoeflerText-Regular,Hoefler Text" font-size="38.0" fill="#525252" transform="matrix(1.00, 0.00, -0.00, -1.00, 579.2, 434.6)">p</text><text xml:space="preserve" font-family="HoeflerText-Regular,Hoefler Text" font-size="38.0" fill="#525252" transform="matrix(1.00, 0.00, -0.00, -1.00, 600.1, 434.6)">t</text><text xml:space="preserve" font-family="HoeflerText-Regular,Hoefler Text" font-size="38.0" fill="#525252" transform="matrix(1.00, 0.00, -0.00, -1.00, 613.5, 434.6)">e</text><text xml:space="preserve" font-family="HoeflerText-Regular,Hoefler Text" font-size="38.0" fill="#525252" transform="matrix(1.00, 0.00, -0.00, -1.00, 631.3, 434.6)">m</text><text xml:space="preserve" font-family="HoeflerText-Regular,Hoefler Text" font-size="38.0" fill="#525252" transform="matrix(1.00, 0.00, -0.00, -1.00, 662.7, 434.6)">b</text><text xml:space="preserve" font-family="HoeflerText-Regular,Hoefler Text" font-size="38.0" fill="#525252" transform="matrix(1.00, 0.00, -0.00, -1.00, 683.6, 434.6)">e</text><text xml:space="preserve" font-family="HoeflerText-Regular,Hoefler Text" font-size="38.0" fill="#525252" transform="matrix(1.00, 0.00, -0.00, -1.00, 701.3, 434.6)">r</text><text xml:space="preserve" font-family="HoeflerText-Regular,Hoefler Text" font-size="38.0" fill="#525252" transform="matrix(1.00, 0.00, -0.00, -1.00, 715.5, 434.6)"> </text><text xml:space="preserve" font-family="HoeflerText-Regular,Hoefler Text" font-size="38.0" fill="#525252" transform="matrix(1.00, 0.00, -0.00, -1.00, 725.0, 434.6)">2</text><text xml:space="preserve" font-family="HoeflerText-Regular,Hoefler Text" font-size="38.0" fill="#525252" transform="matrix(1.00, 0.00, -0.00, -1.00, 742.0, 434.6)">0</text><text xml:space="preserve" font-family="HoeflerText-Regular,Hoefler Text" font-size="38.0" fill="#525252" transform="matrix(1.00, 0.00, -0.00, -1.00, 764.6, 434.6)">t</text><text xml:space="preserve" font-family="HoeflerText-Regular,Hoefler Text" font-size="38.0" fill="#525252" transform="matrix(1.00, 0.00, -0.00, -1.00, 778.6, 434.6)">h</text><text xml:space="preserve" font-family="HoeflerText-Regular,Hoefler Text" font-size="38.0" fill="#525252" transform="matrix(1.00, 0.00, -0.00, -1.00, 799.7, 434.6)">.</text><text xml:space="preserve" font-family="HoeflerText-Regular,Hoefler Text" font-size="38.0" fill="#525252" transform="matrix(1.00, 0.00, -0.00, -1.00, 809.1, 434.6)"> </text><text xml:space="preserve" font-family="HoeflerText-Regular,Hoefler Text" font-size="38.0" fill="#525252" transform="matrix(1.00, 0.00, -0.00, -1.00, 818.6, 434.6)">I</text><text xml:space="preserve" font-family="HoeflerText-Regular,Hoefler Text" font-size="38.0" fill="#525252" transform="matrix(1.00, 0.00, -0.00, -1.00, 835.4, 434.6)"> </text><text xml:space="preserve" font-family="HoeflerText-Regular,Hoefler Text" font-size="38.0" fill="#525252" transform="matrix(1.00, 0.00, -0.00, -1.00, 844.9, 434.6)">h</text><text xml:space="preserve" font-family="HoeflerText-Regular,Hoefler Text" font-size="38.0" fill="#525252" transform="matrix(1.00, 0.00, -0.00, -1.00, 865.9, 434.6)">a</text><text xml:space="preserve" font-family="HoeflerText-Regular,Hoefler Text" font-size="38.0" fill="#525252" transform="matrix(1.00, 0.00, -0.00, -1.00, 883.4, 434.6)">v</text><text xml:space="preserve" font-family="HoeflerText-Regular,Hoefler Text" font-size="38.0" fill="#525252" transform="matrix(1.00, 0.00, -0.00, -1.00, 900.7, 434.6)">e</text><text xml:space="preserve" font-family="HoeflerText-Regular,Hoefler Text" font-size="38.0" fill="#525252" transform="matrix(1.00, 0.00, -0.00, -1.00, 918.5, 434.6)"> </text><text xml:space="preserve" font-family="HoeflerText-Regular,Hoefler Text" font-size="38.0" fill="#525252" transform="matrix(1.00, 0.00, -0.00, -1.00, 928.0, 434.6)">3</text><text xml:space="preserve" font-family="HoeflerText-Regular,Hoefler Text" font-size="38.0" fill="#525252" transform="matrix(1.00, 0.00, -0.00, -1.00, 943.4, 434.6)"> </text><text xml:space="preserve" font-family="HoeflerText-Regular,Hoefler Text" font-size="38.0" fill="#525252" transform="matrix(1.00, 0.00, -0.00, -1.00, 543.0, 388.6)">d</text><text xml:space="preserve" font-family="HoeflerText-Regular,Hoefler Text" font-size="38.0" fill="#525252" transform="matrix(1.00, 0.00, -0.00, -1.00, 563.6, 388.6)">a</text><text xml:space="preserve" font-family="HoeflerText-Regular,Hoefler Text" font-size="38.0" fill="#525252" transform="matrix(1.00, 0.00, -0.00, -1.00, 580.6, 388.6)">y</text><text xml:space="preserve" font-family="HoeflerText-Regular,Hoefler Text" font-size="38.0" fill="#525252" transform="matrix(1.00, 0.00, -0.00, -1.00, 598.0, 388.6)">s</text><text xml:space="preserve" font-family="HoeflerText-Regular,Hoefler Text" font-size="38.0" fill="#525252" transform="matrix(1.00, 0.00, -0.00, -1.00, 612.5, 388.6)"> </text><text xml:space="preserve" font-family="HoeflerText-Regular,Hoefler Text" font-size="38.0" fill="#525252" transform="matrix(1.00, 0.00, -0.00, -1.00, 622.0, 388.6)">t</text><text xml:space="preserve" font-family="HoeflerText-Regular,Hoefler Text" font-size="38.0" fill="#525252" transform="matrix(1.00, 0.00, -0.00, -1.00, 636.0, 388.6)">i</text><text xml:space="preserve" font-family="HoeflerText-Regular,Hoefler Text" font-size="38.0" fill="#525252" transform="matrix(1.00, 0.00, -0.00, -1.00, 646.6, 388.6)">m</text><text xml:space="preserve" font-family="HoeflerText-Regular,Hoefler Text" font-size="38.0" fill="#525252" transform="matrix(1.00, 0.00, -0.00, -1.00, 678.1, 388.6)">e</text><text xml:space="preserve" font-family="HoeflerText-Regular,Hoefler Text" font-size="38.0" fill="#525252" transform="matrix(1.00, 0.00, -0.00, -1.00, 695.8, 388.6)"> </text><text xml:space="preserve" font-family="HoeflerText-Regular,Hoefler Text" font-size="38.0" fill="#525252" transform="matrix(1.00, 0.00, -0.00, -1.00, 705.3, 388.6)">a</text><text xml:space="preserve" font-family="HoeflerText-Regular,Hoefler Text" font-size="38.0" fill="#525252" transform="matrix(1.00, 0.00, -0.00, -1.00, 722.3, 388.6)">n</text><text xml:space="preserve" font-family="HoeflerText-Regular,Hoefler Text" font-size="38.0" fill="#525252" transform="matrix(1.00, 0.00, -0.00, -1.00, 743.1, 388.6)">d</text><text xml:space="preserve" font-family="HoeflerText-Regular,Hoefler Text" font-size="38.0" fill="#525252" transform="matrix(1.00, 0.00, -0.00, -1.00, 763.7, 388.6)"> </text><text xml:space="preserve" font-family="HoeflerText-Regular,Hoefler Text" font-size="38.0" fill="#525252" transform="matrix(1.00, 0.00, -0.00, -1.00, 773.2, 388.6)">m</text><text xml:space="preserve" font-family="HoeflerText-Regular,Hoefler Text" font-size="38.0" fill="#525252" transform="matrix(1.00, 0.00, -0.00, -1.00, 804.6, 388.6)">y</text><text xml:space="preserve" font-family="HoeflerText-Regular,Hoefler Text" font-size="38.0" fill="#525252" transform="matrix(1.00, 0.00, -0.00, -1.00, 822.0, 388.6)"> </text><text xml:space="preserve" font-family="HoeflerText-Regular,Hoefler Text" font-size="38.0" fill="#525252" transform="matrix(1.00, 0.00, -0.00, -1.00, 831.5, 388.6)">b</text><text xml:space="preserve" font-family="HoeflerText-Regular,Hoefler Text" font-size="38.0" fill="#525252" transform="matrix(1.00, 0.00, -0.00, -1.00, 852.4, 388.6)">u</text><text xml:space="preserve" font-family="HoeflerText-Regular,Hoefler Text" font-size="38.0" fill="#525252" transform="matrix(1.00, 0.00, -0.00, -1.00, 872.2, 388.6)">d</text><text xml:space="preserve" font-family="HoeflerText-Regular,Hoefler Text" font-size="38.0" fill="#525252" transform="matrix(1.00, 0.00, -0.00, -1.00, 892.8, 388.6)">g</text><text xml:space="preserve" font-family="HoeflerText-Regular,Hoefler Text" font-size="38.0" fill="#525252" transform="matrix(1.00, 0.00, -0.00, -1.00, 910.8, 388.6)">e</text><text xml:space="preserve" font-family="HoeflerText-Regular,Hoefler Text" font-size="38.0" fill="#525252" transform="matrix(1.00, 0.00, -0.00, -1.00, 928.6, 388.6)">t</text><text xml:space="preserve" font-family="HoeflerText-Regular,Hoefler Text" font-size="38.0" fill="#525252" transform="matrix(1.00, 0.00, -0.00, -1.00, 942.6, 388.6)"> </text><text xml:space="preserve" font-family="HoeflerText-Regular,Hoefler Text" font-size="38.0" fill="#525252" transform="matrix(1.00, 0.00, -0.00, -1.00, 585.3, 342.6)">i</text><text xml:space="preserve" font-family="HoeflerText-Regular,Hoefler Text" font-size="38.0" fill="#525252" transform="matrix(1.00, 0.00, -0.00, -1.00, 595.9, 342.6)">s</text><text xml:space="preserve" font-family="HoeflerText-Regular,Hoefler Text" font-size="38.0" fill="#525252" transform="matrix(1.00, 0.00, -0.00, -1.00, 610.4, 342.6)"> </text><text xml:space="preserve" font-family="HoeflerText-Regular,Hoefler Text" font-size="38.0" fill="#525252" transform="matrix(1.00, 0.00, -0.00, -1.00, 619.9, 342.6)">r</text><text xml:space="preserve" font-family="HoeflerText-Regular,Hoefler Text" font-size="38.0" fill="#525252" transform="matrix(1.00, 0.00, -0.00, -1.00, 635.0, 342.6)">u</text><text xml:space="preserve" font-family="HoeflerText-Regular,Hoefler Text" font-size="38.0" fill="#525252" transform="matrix(1.00, 0.00, -0.00, -1.00, 654.9, 342.6)">p</text><text xml:space="preserve" font-family="HoeflerText-Regular,Hoefler Text" font-size="38.0" fill="#525252" transform="matrix(1.00, 0.00, -0.00, -1.00, 675.7, 342.6)">e</text><text xml:space="preserve" font-family="HoeflerText-Regular,Hoefler Text" font-size="38.0" fill="#525252" transform="matrix(1.00, 0.00, -0.00, -1.00, 693.5, 342.6)">e</text><text xml:space="preserve" font-family="HoeflerText-Regular,Hoefler Text" font-size="38.0" fill="#525252" transform="matrix(1.00, 0.00, -0.00, -1.00, 711.3, 342.6)">s</text><text xml:space="preserve" font-family="HoeflerText-Regular,Hoefler Text" font-size="38.0" fill="#525252" transform="matrix(1.00, 0.00, -0.00, -1.00, 725.8, 342.6)"> </text><text xml:space="preserve" font-family="HoeflerText-Regular,Hoefler Text" font-size="38.0" fill="#525252" transform="matrix(1.00, 0.00, -0.00, -1.00, 735.3, 342.6)">5</text><text xml:space="preserve" font-family="HoeflerText-Regular,Hoefler Text" font-size="38.0" fill="#525252" transform="matrix(1.00, 0.00, -0.00, -1.00, 750.9, 342.6)">0</text><text xml:space="preserve" font-family="HoeflerText-Regular,Hoefler Text" font-size="38.0" fill="#525252" transform="matrix(1.00, 0.00, -0.00, -1.00, 773.6, 342.6)">0</text><text xml:space="preserve" font-family="HoeflerText-Regular,Hoefler Text" font-size="38.0" fill="#525252" transform="matrix(1.00, 0.00, -0.00, -1.00, 796.2, 342.6)">0</text><text xml:space="preserve" font-family="HoeflerText-Regular,Hoefler Text" font-size="38.0" fill="#525252" transform="matrix(1.00, 0.00, -0.00, -1.00, 818.9, 342.6)">0</text><text xml:space="preserve" font-family="HoeflerText-Regular,Hoefler Text" font-size="38.0" fill="#525252" transform="matrix(1.00, 0.00, -0.00, -1.00, 841.5, 342.6)">/</text><text xml:space="preserve" font-family="HoeflerText-Regular,Hoefler Text" font-size="38.0" fill="#525252" transform="matrix(1.00, 0.00, -0.00, -1.00, 852.3, 342.6)">-</text><text xml:space="preserve" font-family="HoeflerText-Regular,Hoefler Text" font-size="38.0" fill="#525252" transform="matrix(1.00, 0.00, -0.00, -1.00, 864.6, 342.6)">.</text><text xml:space="preserve" font-family="HoeflerText-Regular,Hoefler Text" font-size="38.0" fill="#525252" transform="matrix(1.00, 0.00, -0.00, -1.00, 874.0, 342.6)"> </text><text xml:space="preserve" font-family="HoeflerText-Regular,Hoefler Text" font-size="38.0" fill="#525252" transform="matrix(1.00, 0.00, -0.00, -1.00, 883.5, 342.6)">I</text><text xml:space="preserve" font-family="HoeflerText-Regular,Hoefler Text" font-size="38.0" fill="#525252" transform="matrix(1.00, 0.00, -0.00, -1.00, 900.3, 342.6)"> </text><text xml:space="preserve" font-family="HoeflerText-Regular,Hoefler Text" font-size="38.0" fill="#525252" transform="matrix(1.00, 0.00, -0.00, -1.00, 556.4, 296.6)">w</text><text xml:space="preserve" font-family="HoeflerText-Regular,Hoefler Text" font-size="38.0" fill="#525252" transform="matrix(1.00, 0.00, -0.00, -1.00, 582.7, 296.6)">o</text><text xml:space="preserve" font-family="HoeflerText-Regular,Hoefler Text" font-size="38.0" fill="#525252" transform="matrix(1.00, 0.00, -0.00, -1.00, 603.1, 296.6)">u</text><text xml:space="preserve" font-family="HoeflerText-Regular,Hoefler Text" font-size="38.0" fill="#525252" transform="matrix(1.00, 0.00, -0.00, -1.00, 622.9, 296.6)">l</text><text xml:space="preserve" font-family="HoeflerText-Regular,Hoefler Text" font-size="38.0" fill="#525252" transform="matrix(1.00, 0.00, -0.00, -1.00, 632.8, 296.6)">d</text><text xml:space="preserve" font-family="HoeflerText-Regular,Hoefler Text" font-size="38.0" fill="#525252" transform="matrix(1.00, 0.00, -0.00, -1.00, 653.4, 296.6)"> </text><text xml:space="preserve" font-family="HoeflerText-Regular,Hoefler Text" font-size="38.0" fill="#525252" transform="matrix(1.00, 0.00, -0.00, -1.00, 662.9, 296.6)">l</text><text xml:space="preserve" font-family="HoeflerText-Regular,Hoefler Text" font-size="38.0" fill="#525252" transform="matrix(1.00, 0.00, -0.00, -1.00, 672.7, 296.6)">i</text><text xml:space="preserve" font-family="HoeflerText-Regular,Hoefler Text" font-size="38.0" fill="#525252" transform="matrix(1.00, 0.00, -0.00, -1.00, 683.4, 296.6)">k</text><text xml:space="preserve" font-family="HoeflerText-Regular,Hoefler Text" font-size="38.0" fill="#525252" transform="matrix(1.00, 0.00, -0.00, -1.00, 702.8, 296.6)">e</text><text xml:space="preserve" font-family="HoeflerText-Regular,Hoefler Text" font-size="38.0" fill="#525252" transform="matrix(1.00, 0.00, -0.00, -1.00, 720.6, 296.6)"> </text><text xml:space="preserve" font-family="HoeflerText-Regular,Hoefler Text" font-size="38.0" fill="#525252" transform="matrix(1.00, 0.00, -0.00, -1.00, 730.1, 296.6)">t</text><text xml:space="preserve" font-family="HoeflerText-Regular,Hoefler Text" font-size="38.0" fill="#525252" transform="matrix(1.00, 0.00, -0.00, -1.00, 743.6, 296.6)">o</text><text xml:space="preserve" font-family="HoeflerText-Regular,Hoefler Text" font-size="38.0" fill="#525252" transform="matrix(1.00, 0.00, -0.00, -1.00, 763.9, 296.6)"> </text><text xml:space="preserve" font-family="HoeflerText-Regular,Hoefler Text" font-size="38.0" fill="#525252" transform="matrix(1.00, 0.00, -0.00, -1.00, 773.4, 296.6)">h</text><text xml:space="preserve" font-family="HoeflerText-Regular,Hoefler Text" font-size="38.0" fill="#525252" transform="matrix(1.00, 0.00, -0.00, -1.00, 794.5, 296.6)">a</text><text xml:space="preserve" font-family="HoeflerText-Regular,Hoefler Text" font-size="38.0" fill="#525252" transform="matrix(1.00, 0.00, -0.00, -1.00, 812.0, 296.6)">v</text><text xml:space="preserve" font-family="HoeflerText-Regular,Hoefler Text" font-size="38.0" fill="#525252" transform="matrix(1.00, 0.00, -0.00, -1.00, 829.3, 296.6)">e</text><text xml:space="preserve" font-family="HoeflerText-Regular,Hoefler Text" font-size="38.0" fill="#525252" transform="matrix(1.00, 0.00, -0.00, -1.00, 847.1, 296.6)"> </text><text xml:space="preserve" font-family="HoeflerText-Regular,Hoefler Text" font-size="38.0" fill="#525252" transform="matrix(1.00, 0.00, -0.00, -1.00, 856.6, 296.6)">p</text><text xml:space="preserve" font-family="HoeflerText-Regular,Hoefler Text" font-size="38.0" fill="#525252" transform="matrix(1.00, 0.00, -0.00, -1.00, 877.4, 296.6)">u</text><text xml:space="preserve" font-family="HoeflerText-Regular,Hoefler Text" font-size="38.0" fill="#525252" transform="matrix(1.00, 0.00, -0.00, -1.00, 897.3, 296.6)">r</text><text xml:space="preserve" font-family="HoeflerText-Regular,Hoefler Text" font-size="38.0" fill="#525252" transform="matrix(1.00, 0.00, -0.00, -1.00, 911.4, 296.6)">e</text><text xml:space="preserve" font-family="HoeflerText-Regular,Hoefler Text" font-size="38.0" fill="#525252" transform="matrix(1.00, 0.00, -0.00, -1.00, 929.2, 296.6)"> </text><text xml:space="preserve" font-family="HoeflerText-Regular,Hoefler Text" font-size="38.0" fill="#525252" transform="matrix(1.00, 0.00, -0.00, -1.00, 580.2, 250.6)">v</text><text xml:space="preserve" font-family="HoeflerText-Regular,Hoefler Text" font-size="38.0" fill="#525252" transform="matrix(1.00, 0.00, -0.00, -1.00, 597.5, 250.6)">e</text><text xml:space="preserve" font-family="HoeflerText-Regular,Hoefler Text" font-size="38.0" fill="#525252" transform="matrix(1.00, 0.00, -0.00, -1.00, 615.3, 250.6)">g</text><text xml:space="preserve" font-family="HoeflerText-Regular,Hoefler Text" font-size="38.0" fill="#525252" transform="matrix(1.00, 0.00, -0.00, -1.00, 633.2, 250.6)">e</text><text xml:space="preserve" font-family="HoeflerText-Regular,Hoefler Text" font-size="38.0" fill="#525252" transform="matrix(1.00, 0.00, -0.00, -1.00, 651.0, 250.6)">t</text><text xml:space="preserve" font-family="HoeflerText-Regular,Hoefler Text" font-size="38.0" fill="#525252" transform="matrix(1.00, 0.00, -0.00, -1.00, 665.0, 250.6)">a</text><text xml:space="preserve" font-family="HoeflerText-Regular,Hoefler Text" font-size="38.0" fill="#525252" transform="matrix(1.00, 0.00, -0.00, -1.00, 682.0, 250.6)">r</text><text xml:space="preserve" font-family="HoeflerText-Regular,Hoefler Text" font-size="38.0" fill="#525252" transform="matrix(1.00, 0.00, -0.00, -1.00, 696.1, 250.6)">i</text><text xml:space="preserve" font-family="HoeflerText-Regular,Hoefler Text" font-size="38.0" fill="#525252" transform="matrix(1.00, 0.00, -0.00, -1.00, 706.8, 250.6)">a</text><text xml:space="preserve" font-family="HoeflerText-Regular,Hoefler Text" font-size="38.0" fill="#525252" transform="matrix(1.00, 0.00, -0.00, -1.00, 723.7, 250.6)">n</text><text xml:space="preserve" font-family="HoeflerText-Regular,Hoefler Text" font-size="38.0" fill="#525252" transform="matrix(1.00, 0.00, -0.00, -1.00, 744.5, 250.6)"> </text><text xml:space="preserve" font-family="HoeflerText-Regular,Hoefler Text" font-size="38.0" fill="#525252" transform="matrix(1.00, 0.00, -0.00, -1.00, 754.0, 250.6)">f</text><text xml:space="preserve" font-family="HoeflerText-Regular,Hoefler Text" font-size="38.0" fill="#525252" transform="matrix(1.00, 0.00, -0.00, -1.00, 766.8, 250.6)">o</text><text xml:space="preserve" font-family="HoeflerText-Regular,Hoefler Text" font-size="38.0" fill="#525252" transform="matrix(1.00, 0.00, -0.00, -1.00, 787.1, 250.6)">o</text><text xml:space="preserve" font-family="HoeflerText-Regular,Hoefler Text" font-size="38.0" fill="#525252" transform="matrix(1.00, 0.00, -0.00, -1.00, 807.5, 250.6)">d</text><text xml:space="preserve" font-family="HoeflerText-Regular,Hoefler Text" font-size="38.0" fill="#525252" transform="matrix(1.00, 0.00, -0.00, -1.00, 828.1, 250.6)">,</text><text xml:space="preserve" font-family="HoeflerText-Regular,Hoefler Text" font-size="38.0" fill="#525252" transform="matrix(1.00, 0.00, -0.00, -1.00, 837.5, 250.6)"> </text><text xml:space="preserve" font-family="HoeflerText-Regular,Hoefler Text" font-size="38.0" fill="#525252" transform="matrix(1.00, 0.00, -0.00, -1.00, 847.0, 250.6)">a</text><text xml:space="preserve" font-family="HoeflerText-Regular,Hoefler Text" font-size="38.0" fill="#525252" transform="matrix(1.00, 0.00, -0.00, -1.00, 863.9, 250.6)">n</text><text xml:space="preserve" font-family="HoeflerText-Regular,Hoefler Text" font-size="38.0" fill="#525252" transform="matrix(1.00, 0.00, -0.00, -1.00, 884.8, 250.6)">d</text><text xml:space="preserve" font-family="HoeflerText-Regular,Hoefler Text" font-size="38.0" fill="#525252" transform="matrix(1.00, 0.00, -0.00, -1.00, 905.4, 250.6)"> </text><text xml:space="preserve" font-family="HoeflerText-Regular,Hoefler Text" font-size="38.0" fill="#525252" transform="matrix(1.00, 0.00, -0.00, -1.00, 582.4, 204.6)">w</text><text xml:space="preserve" font-family="HoeflerText-Regular,Hoefler Text" font-size="38.0" fill="#525252" transform="matrix(1.00, 0.00, -0.00, -1.00, 608.7, 204.6)">o</text><text xml:space="preserve" font-family="HoeflerText-Regular,Hoefler Text" font-size="38.0" fill="#525252" transform="matrix(1.00, 0.00, -0.00, -1.00, 629.0, 204.6)">u</text><text xml:space="preserve" font-family="HoeflerText-Regular,Hoefler Text" font-size="38.0" fill="#525252" transform="matrix(1.00, 0.00, -0.00, -1.00, 648.9, 204.6)">l</text><text xml:space="preserve" font-family="HoeflerText-Regular,Hoefler Text" font-size="38.0" fill="#525252" transform="matrix(1.00, 0.00, -0.00, -1.00, 658.7, 204.6)">d</text><text xml:space="preserve" font-family="HoeflerText-Regular,Hoefler Text" font-size="38.0" fill="#525252" transform="matrix(1.00, 0.00, -0.00, -1.00, 679.3, 204.6)"> </text><text xml:space="preserve" font-family="HoeflerText-Regular,Hoefler Text" font-size="38.0" fill="#525252" transform="matrix(1.00, 0.00, -0.00, -1.00, 688.8, 204.6)">l</text><text xml:space="preserve" font-family="HoeflerText-Regular,Hoefler Text" font-size="38.0" fill="#525252" transform="matrix(1.00, 0.00, -0.00, -1.00, 698.7, 204.6)">i</text><text xml:space="preserve" font-family="HoeflerText-Regular,Hoefler Text" font-size="38.0" fill="#525252" transform="matrix(1.00, 0.00, -0.00, -1.00, 709.3, 204.6)">k</text><text xml:space="preserve" font-family="HoeflerText-Regular,Hoefler Text" font-size="38.0" fill="#525252" transform="matrix(1.00, 0.00, -0.00, -1.00, 728.8, 204.6)">e</text><text xml:space="preserve" font-family="HoeflerText-Regular,Hoefler Text" font-size="38.0" fill="#525252" transform="matrix(1.00, 0.00, -0.00, -1.00, 746.6, 204.6)"> </text><text xml:space="preserve" font-family="HoeflerText-Regular,Hoefler Text" font-size="38.0" fill="#525252" transform="matrix(1.00, 0.00, -0.00, -1.00, 756.1, 204.6)">t</text><text xml:space="preserve" font-family="HoeflerText-Regular,Hoefler Text" font-size="38.0" fill="#525252" transform="matrix(1.00, 0.00, -0.00, -1.00, 769.5, 204.6)">o</text><text xml:space="preserve" font-family="HoeflerText-Regular,Hoefler Text" font-size="38.0" fill="#525252" transform="matrix(1.00, 0.00, -0.00, -1.00, 789.9, 204.6)"> </text><text xml:space="preserve" font-family="HoeflerText-Regular,Hoefler Text" font-size="38.0" fill="#525252" transform="matrix(1.00, 0.00, -0.00, -1.00, 799.4, 204.6)">s</text><text xml:space="preserve" font-family="HoeflerText-Regular,Hoefler Text" font-size="38.0" fill="#525252" transform="matrix(1.00, 0.00, -0.00, -1.00, 813.9, 204.6)">t</text><text xml:space="preserve" font-family="HoeflerText-Regular,Hoefler Text" font-size="38.0" fill="#525252" transform="matrix(1.00, 0.00, -0.00, -1.00, 827.9, 204.6)">a</text><text xml:space="preserve" font-family="HoeflerText-Regular,Hoefler Text" font-size="38.0" fill="#525252" transform="matrix(1.00, 0.00, -0.00, -1.00, 844.9, 204.6)">y</text><text xml:space="preserve" font-family="HoeflerText-Regular,Hoefler Text" font-size="38.0" fill="#525252" transform="matrix(1.00, 0.00, -0.00, -1.00, 862.3, 204.6)"> </text><text xml:space="preserve" font-family="HoeflerText-Regular,Hoefler Text" font-size="38.0" fill="#525252" transform="matrix(1.00, 0.00, -0.00, -1.00, 871.8, 204.6)">i</text><text xml:space="preserve" font-family="HoeflerText-Regular,Hoefler Text" font-size="38.0" fill="#525252" transform="matrix(1.00, 0.00, -0.00, -1.00, 882.4, 204.6)">n</text><text xml:space="preserve" font-family="HoeflerText-Regular,Hoefler Text" font-size="38.0" fill="#525252" transform="matrix(1.00, 0.00, -0.00, -1.00, 903.2, 204.6)"> </text><text xml:space="preserve" font-family="HoeflerText-Regular,Hoefler Text" font-size="38.0" fill="#525252" transform="matrix(1.00, 0.00, -0.00, -1.00, 592.9, 158.6)">r</text><text xml:space="preserve" font-family="HoeflerText-Regular,Hoefler Text" font-size="38.0" fill="#525252" transform="matrix(1.00, 0.00, -0.00, -1.00, 607.0, 158.6)">e</text><text xml:space="preserve" font-family="HoeflerText-Regular,Hoefler Text" font-size="38.0" fill="#525252" transform="matrix(1.00, 0.00, -0.00, -1.00, 624.8, 158.6)">s</text><text xml:space="preserve" font-family="HoeflerText-Regular,Hoefler Text" font-size="38.0" fill="#525252" transform="matrix(1.00, 0.00, -0.00, -1.00, 639.3, 158.6)">o</text><text xml:space="preserve" font-family="HoeflerText-Regular,Hoefler Text" font-size="38.0" fill="#525252" transform="matrix(1.00, 0.00, -0.00, -1.00, 659.7, 158.6)">r</text><text xml:space="preserve" font-family="HoeflerText-Regular,Hoefler Text" font-size="38.0" fill="#525252" transform="matrix(1.00, 0.00, -0.00, -1.00, 674.2, 158.6)">t</text><text xml:space="preserve" font-family="HoeflerText-Regular,Hoefler Text" font-size="38.0" fill="#525252" transform="matrix(1.00, 0.00, -0.00, -1.00, 688.2, 158.6)">s</text><text xml:space="preserve" font-family="HoeflerText-Regular,Hoefler Text" font-size="38.0" fill="#525252" transform="matrix(1.00, 0.00, -0.00, -1.00, 702.8, 158.6)"> </text><text xml:space="preserve" font-family="HoeflerText-Regular,Hoefler Text" font-size="38.0" fill="#525252" transform="matrix(1.00, 0.00, -0.00, -1.00, 712.3, 158.6)">r</text><text xml:space="preserve" font-family="HoeflerText-Regular,Hoefler Text" font-size="38.0" fill="#525252" transform="matrix(1.00, 0.00, -0.00, -1.00, 726.4, 158.6)">a</text><text xml:space="preserve" font-family="HoeflerText-Regular,Hoefler Text" font-size="38.0" fill="#525252" transform="matrix(1.00, 0.00, -0.00, -1.00, 743.3, 158.6)">t</text><text xml:space="preserve" font-family="HoeflerText-Regular,Hoefler Text" font-size="38.0" fill="#525252" transform="matrix(1.00, 0.00, -0.00, -1.00, 757.4, 158.6)">h</text><text xml:space="preserve" font-family="HoeflerText-Regular,Hoefler Text" font-size="38.0" fill="#525252" transform="matrix(1.00, 0.00, -0.00, -1.00, 778.4, 158.6)">e</text><text xml:space="preserve" font-family="HoeflerText-Regular,Hoefler Text" font-size="38.0" fill="#525252" transform="matrix(1.00, 0.00, -0.00, -1.00, 796.2, 158.6)">r</text><text xml:space="preserve" font-family="HoeflerText-Regular,Hoefler Text" font-size="38.0" fill="#525252" transform="matrix(1.00, 0.00, -0.00, -1.00, 810.3, 158.6)"> </text><text xml:space="preserve" font-family="HoeflerText-Regular,Hoefler Text" font-size="38.0" fill="#525252" transform="matrix(1.00, 0.00, -0.00, -1.00, 819.8, 158.6)">t</text><text xml:space="preserve" font-family="HoeflerText-Regular,Hoefler Text" font-size="38.0" fill="#525252" transform="matrix(1.00, 0.00, -0.00, -1.00, 833.9, 158.6)">h</text><text xml:space="preserve" font-family="HoeflerText-Regular,Hoefler Text" font-size="38.0" fill="#525252" transform="matrix(1.00, 0.00, -0.00, -1.00, 854.9, 158.6)">a</text><text xml:space="preserve" font-family="HoeflerText-Regular,Hoefler Text" font-size="38.0" fill="#525252" transform="matrix(1.00, 0.00, -0.00, -1.00, 871.9, 158.6)">n</text><text xml:space="preserve" font-family="HoeflerText-Regular,Hoefler Text" font-size="38.0" fill="#525252" transform="matrix(1.00, 0.00, -0.00, -1.00, 892.7, 158.6)"> </text><text xml:space="preserve" font-family="HoeflerText-Regular,Hoefler Text" font-size="38.0" fill="#525252" transform="matrix(1.00, 0.00, -0.00, -1.00, 677.5, 112.6)">h</text><text xml:space="preserve" font-family="HoeflerText-Regular,Hoefler Text" font-size="38.0" fill="#525252" transform="matrix(1.00, 0.00, -0.00, -1.00, 698.5, 112.6)">o</text><text xml:space="preserve" font-family="HoeflerText-Regular,Hoefler Text" font-size="38.0" fill="#525252" transform="matrix(1.00, 0.00, -0.00, -1.00, 718.9, 112.6)">t</text><text xml:space="preserve" font-family="HoeflerText-Regular,Hoefler Text" font-size="38.0" fill="#525252" transform="matrix(1.00, 0.00, -0.00, -1.00, 732.4, 112.6)">e</text><text xml:space="preserve" font-family="HoeflerText-Regular,Hoefler Text" font-size="38.0" fill="#525252" transform="matrix(1.00, 0.00, -0.00, -1.00, 750.1, 112.6)">l</text><text xml:space="preserve" font-family="HoeflerText-Regular,Hoefler Text" font-size="38.0" fill="#525252" transform="matrix(1.00, 0.00, -0.00, -1.00, 760.0, 112.6)">s</text><text xml:space="preserve" font-family="HoeflerText-Regular,Hoefler Text" font-size="38.0" fill="#525252" transform="matrix(1.00, 0.00, -0.00, -1.00, 774.5, 112.6)">.</text><text xml:space="preserve" font-family="HoeflerText-Regular,Hoefler Text" font-size="38.0" fill="#525252" transform="matrix(1.00, 0.00, -0.00, -1.00, 783.9, 112.6)"> </text><text xml:space="preserve" font-family="HoeflerText-Regular,Hoefler Text" font-size="38.0" fill="#525252" transform="matrix(1.00, 0.00, -0.00, -1.00, 793.4, 112.6)">”</text><g><clipPath id="clip0x6080020aa860"><path d="M 0.0 768.0 L 511.0 768.0 L 511.0 0.0 L 0.0 0.0 Z M -0.2 768.0 "></path></clipPath><g clip-path="url(#clip0x6080020aa860)"><image xlink:href="../../D507C1B8-16BC-4AE9-A321-9B508878998F/assets/B353773860B8E060025F5F538AC7E5D0.jpeg" width="958.00" height="1300.00" transform="matrix(0.59, 0.00, -0.00, -0.59, -0.2, 768.0)"></image></g></g></g></svg>